# xmcd
#
# Track frame offsets: 
#        150
#        16585
#        32855
#        46600
#        64732
#        82170
#        98060
#        113607
#        129840
#        144900
#        146345
#        166477
#        184920
#
# Disc length: 2749 seconds
#
# Revision: 3
# Processed by: cddbd v1.5.2PL0 Copyright (c) Steve Scherf et al.
# Submitted via: ExactAudioCopy v0.99pb5
#
DISCID=9f0abb0d
DTITLE=Somebody's Darling - Forever For Now
DYEAR=1994
DGENRE=Country
TTITLE0=Easy Going
TTITLE1=Forever For Now
TTITLE2=Angel Flying High
TTITLE3=Pretty Does It
TTITLE4=Chapter Three
TTITLE5=If Not In Heaven
TTITLE6=Somebody's Darling
TTITLE7=A Lot More To Come
TTITLE8=Nowhere Slow
TTITLE9=Waiting For The Photographer
TTITLE10=Love To Loneliness
TTITLE11=Nothing Left
TTITLE12=The Beggar
EXTD=7044171508029
EXTT0=
EXTT1=
EXTT2=
EXTT3=
EXTT4=
EXTT5=
EXTT6=
EXTT7=
EXTT8=
EXTT9=
EXTT10=
EXTT11=
EXTT12=
PLAYORDER=
